<mxfile host="65bd71144e">
    <diagram id="B2Imsyf_CLR86bu_pUIC" name="Page-1">
        <mxGraphModel dx="1088" dy="790" grid="1" gridSize="10" guides="1" tooltips="1" connect="1" arrows="1" fold="1" page="1" pageScale="1" pageWidth="850" pageHeight="1100" math="0" shadow="0">
            <root>
                <mxCell id="0"/>
                <mxCell id="1" parent="0"/>
                <mxCell id="MQiLAS_GX4agoQm80DII-1" value="Accounts&lt;br&gt;&lt;br&gt;- encryptedSeed&lt;br&gt;- net&lt;br&gt;- name" style="verticalLabelPosition=bottom;verticalAlign=top;html=1;shape=mxgraph.basic.partConcEllipse;startAngle=0.25;endAngle=0.1;arcWidth=0.5;" parent="1" vertex="1">
                    <mxGeometry x="40" y="160" width="100" height="100" as="geometry"/>
                </mxCell>
                <mxCell id="MQiLAS_GX4agoQm80DII-2" value="box" style="ellipse;whiteSpace=wrap;html=1;aspect=fixed;" parent="1" vertex="1">
                    <mxGeometry x="70" y="190" width="40" height="40" as="geometry"/>
                </mxCell>
                <mxCell id="MQiLAS_GX4agoQm80DII-3" value="Addresses&lt;br&gt;&lt;br&gt;- scripthash&lt;br&gt;- address&lt;br&gt;- accountId&lt;br&gt;- hdIndex&lt;br&gt;- exposure&lt;br&gt;- net - why?" style="verticalLabelPosition=bottom;verticalAlign=top;html=1;shape=mxgraph.basic.partConcEllipse;startAngle=0.25;endAngle=0.1;arcWidth=0.5;" parent="1" vertex="1">
                    <mxGeometry x="200" y="160" width="100" height="100" as="geometry"/>
                </mxCell>
                <mxCell id="MQiLAS_GX4agoQm80DII-4" value="box" style="ellipse;whiteSpace=wrap;html=1;aspect=fixed;" parent="1" vertex="1">
                    <mxGeometry x="230" y="190" width="40" height="40" as="geometry"/>
                </mxCell>
                <mxCell id="MQiLAS_GX4agoQm80DII-5" value="Subscriptions (batched)&lt;br&gt;&lt;br&gt;- scripthashes&lt;br&gt;- ?" style="verticalLabelPosition=bottom;verticalAlign=top;html=1;shape=mxgraph.basic.partConcEllipse;startAngle=0.25;endAngle=0.1;arcWidth=0.5;" parent="1" vertex="1">
                    <mxGeometry x="360" y="160" width="100" height="100" as="geometry"/>
                </mxCell>
                <mxCell id="MQiLAS_GX4agoQm80DII-6" value="box" style="ellipse;whiteSpace=wrap;html=1;aspect=fixed;" parent="1" vertex="1">
                    <mxGeometry x="390" y="190" width="40" height="40" as="geometry"/>
                </mxCell>
                <mxCell id="MQiLAS_GX4agoQm80DII-12" value="&lt;font color=&quot;#0f0f0f&quot;&gt;add:&lt;br&gt;- derive addresses&lt;br&gt;update:&lt;br&gt;- change name in UI&lt;br&gt;remove:&lt;br&gt;- remove addresses&lt;/font&gt;" style="shape=image;html=1;verticalAlign=top;verticalLabelPosition=bottom;labelBackgroundColor=#ffffff;imageAspect=0;aspect=fixed;image=https://cdn2.iconfinder.com/data/icons/essential-web-1-1/50/eye-visible-show-monitor-see-128.png" parent="1" vertex="1">
                    <mxGeometry x="60" y="480" width="60" height="60" as="geometry"/>
                </mxCell>
                <mxCell id="MQiLAS_GX4agoQm80DII-13" value="&lt;font color=&quot;#242424&quot;&gt;add:&lt;br&gt;- setup subscription&lt;br&gt;update:&lt;br&gt;-&lt;br&gt;remove:&lt;br&gt;- remove subscription&lt;/font&gt;" style="shape=image;html=1;verticalAlign=top;verticalLabelPosition=bottom;labelBackgroundColor=#ffffff;imageAspect=0;aspect=fixed;image=https://cdn2.iconfinder.com/data/icons/essential-web-1-1/50/eye-visible-show-monitor-see-128.png" parent="1" vertex="1">
                    <mxGeometry x="220" y="480" width="60" height="60" as="geometry"/>
                </mxCell>
                <mxCell id="MQiLAS_GX4agoQm80DII-14" value="&lt;font color=&quot;#171717&quot;&gt;add:&lt;br&gt;- get report&lt;br&gt;update:&lt;br&gt;- get report&lt;br&gt;remove:&lt;br&gt;- remove report&lt;/font&gt;" style="shape=image;html=1;verticalAlign=top;verticalLabelPosition=bottom;labelBackgroundColor=#ffffff;imageAspect=0;aspect=fixed;image=https://cdn2.iconfinder.com/data/icons/essential-web-1-1/50/eye-visible-show-monitor-see-128.png" parent="1" vertex="1">
                    <mxGeometry x="380" y="480" width="60" height="60" as="geometry"/>
                </mxCell>
                <mxCell id="MQiLAS_GX4agoQm80DII-15" value="Reports&lt;br&gt;&lt;br&gt;- scripthash&lt;br&gt;- balance&lt;br&gt;- history&lt;br&gt;- unspent" style="verticalLabelPosition=bottom;verticalAlign=top;html=1;shape=mxgraph.basic.partConcEllipse;startAngle=0.25;endAngle=0.1;arcWidth=0.5;" parent="1" vertex="1">
                    <mxGeometry x="520" y="160" width="100" height="100" as="geometry"/>
                </mxCell>
                <mxCell id="MQiLAS_GX4agoQm80DII-16" value="box" style="ellipse;whiteSpace=wrap;html=1;aspect=fixed;" parent="1" vertex="1">
                    <mxGeometry x="550" y="190" width="40" height="40" as="geometry"/>
                </mxCell>
                <mxCell id="MQiLAS_GX4agoQm80DII-17" value="&lt;font color=&quot;#0d0d0d&quot;&gt;add:&lt;br&gt;- if not empty, derive address&lt;br&gt;update:&lt;br&gt;- if note empty derive address&lt;br&gt;remove:&lt;br&gt;-&amp;nbsp;&lt;/font&gt;" style="shape=image;html=1;verticalAlign=top;verticalLabelPosition=bottom;labelBackgroundColor=#ffffff;imageAspect=0;aspect=fixed;image=https://cdn2.iconfinder.com/data/icons/essential-web-1-1/50/eye-visible-show-monitor-see-128.png" parent="1" vertex="1">
                    <mxGeometry x="540" y="480" width="60" height="60" as="geometry"/>
                </mxCell>
            </root>
        </mxGraphModel>
    </diagram>
</mxfile>